<svg xmlns="http://www.w3.org/2000/svg" width="21.151" height="17.203" viewBox="3 102 21.151 17.203"><path d="M22.299 102.204 5.05 102a2.055 2.055 0 0 0-.612.08 1.541 1.541 0 0 0-.784.532 2.283 2.283 0 0 0-.45 1.006 3.145 3.145 0 0 0-.055.557 1.805 1.805 0 0 0 0 .022c0 .397.13.821.392 1.273a4.71 4.71 0 0 0 .233.361 7.04 7.04 0 0 0 .61.753c.239.253.485.47.739.653a4.22 4.22 0 0 0 .006.004 51.195 51.195 0 0 0 .204.152c.375.277 1.101.81 2.178 1.598a915.469 915.469 0 0 1 .765.56l.58.425a589.333 589.333 0 0 1 .526.388 465.988 465.988 0 0 1 .486.358l.363.268a266.74 266.74 0 0 1 .324.24 9.466 9.466 0 0 1 .032.024l.139.105a239.532 239.532 0 0 0 .002.001 73.292 73.292 0 0 1 .004.003l.275.21a93.3 93.3 0 0 1 .041.031 37.104 37.104 0 0 0 .181.137c.161.122.302.226.422.312a13.228 13.228 0 0 0 .025.018 8.497 8.497 0 0 0 .202.14c.12.08.255.167.403.26a4.229 4.229 0 0 0 .323.183 3 3 0 0 0 .346.15 2.196 2.196 0 0 0 .281.08c.106.023.207.034.304.036h.023a1.35 1.35 0 0 0 .017 0c.175 0 .365-.034.57-.102.212-.07.438-.176.678-.318a14.962 14.962 0 0 0 .255-.154c.134-.082.253-.16.36-.231.16-.11.36-.25.6-.424a39.576 39.576 0 0 0 .038-.027c.118-.087.217-.158.298-.216a449.203 449.203 0 0 0 .027-.02 168.328 168.328 0 0 1 .006-.004l.142-.102a5.945 5.945 0 0 1 .03-.021 791.982 791.982 0 0 1 .219-.153c.24-.168.556-.39.947-.662a4511.225 4511.225 0 0 0 .029-.02l4.334-3.024a5.678 5.678 0 0 0 1.447-1.468 3.5 3.5 0 0 0 .476-.999 3.087 3.087 0 0 0 .12-.817 2.267 2.267 0 0 0 0-.027 1.877 1.877 0 0 0-.54-1.344 1.91 1.91 0 0 0-.602-.432 1.778 1.778 0 0 0-.71-.15Zm-.201 17a2.074 2.074 0 0 0 .023 0 1.764 1.764 0 0 0 1.211-.464l-5.877-6.2a64.847 64.847 0 0 0-.315.227 45.995 45.995 0 0 0-.1.073 46.998 46.998 0 0 1-.321.236c-.21.153-.397.286-.562.4a14.502 14.502 0 0 1-.21.142 5.574 5.574 0 0 1-.753.409 9.984 9.984 0 0 1-.362.157c-.463.192-.894.285-1.292.28h-.024a2.799 2.799 0 0 1-.65-.088 3.933 3.933 0 0 1-.584-.2 4.752 4.752 0 0 1-.051-.022 9.614 9.614 0 0 1-.46-.217 6.335 6.335 0 0 1-.388-.213 4.202 4.202 0 0 1-.253-.163 15.468 15.468 0 0 1-.222-.158 33.876 33.876 0 0 1-.852-.645 41.323 41.323 0 0 0-.195-.15 52.025 52.025 0 0 0-.212-.162l-6.023 6.06a1.765 1.765 0 0 0 1.223.493l17.249.204ZM4.28 108.523a6.268 6.268 0 0 1-1.17-1.065L3 116.785l5.307-5.34c-1.04-.767-2.38-1.74-4.026-2.921Zm18.644.22a476.906 476.906 0 0 0-1.709 1.167c-.893.612-1.691 1.166-2.395 1.66l5.177 5.462.11-9.326c-.34.383-.734.728-1.183 1.037Z" fill="rgba(255, 255, 255, 1)" fill-rule="evenodd" data-name="mail"/></svg>