<svg xmlns="http://www.w3.org/2000/svg" width="19.824" height="20.132" viewBox="4.735 1.854 19.824 20.132"><path d="M24.55 17.825a.969.969 0 0 1-.305.844l-2.843 2.763c-.128.14-.295.258-.5.354a2.045 2.045 0 0 1-.605.184c-.014 0-.056.002-.127.009-.07.006-.162.008-.274.007-.268-.003-.7-.054-1.298-.153-.597-.099-1.327-.333-2.189-.704-.862-.37-1.838-.922-2.928-1.655-1.09-.733-2.247-1.736-3.472-3.008-.974-.986-1.78-1.928-2.417-2.825-.637-.897-1.149-1.726-1.534-2.487-.386-.76-.673-1.448-.863-2.065a10.908 10.908 0 0 1-.383-1.593c-.065-.446-.089-.796-.072-1.05s.026-.395.026-.424c.03-.197.096-.397.197-.601.101-.204.223-.368.365-.494l2.843-2.784a.928.928 0 0 1 .68-.289.787.787 0 0 1 .484.165c.14.107.258.24.354.396l2.21 4.328c.124.227.156.475.097.742-.06.268-.182.492-.367.673L10.58 9.184a.357.357 0 0 0-.075.137.522.522 0 0 0-.034.159c.053.297.176.638.368 1.021.165.341.421.757.768 1.249.346.491.84 1.058 1.48 1.702.625.657 1.183 1.168 1.672 1.535.488.365.897.635 1.226.809.329.173.581.278.757.315l.263.057a.52.52 0 0 0 .138-.03.353.353 0 0 0 .138-.073l1.219-1.215c.256-.223.553-.332.891-.328.24.003.43.047.569.134h.021l4.049 2.464c.293.186.467.422.52.705Z" fill="rgba(255, 255, 255, 1)" fill-rule="evenodd" data-name="phone"/></svg>